# xmcd
#
# Track frame offsets:
#	150
#	11842
#	24241
#	36034
#	49725
#	63318
#	75699
#	88428
#	100140
#	111577
#	125101
#	142505
#	159069
#	171771
#	189147
#	206585
#	220635
#	233567
#	246258
#	258472
#	271229
#
# Disc length: 3779 seconds
#
# Revision: 1
# Processed by: cddbd v1.5.2PL0 Copyright (c) Steve Scherf et al.
# Submitted via: audiograbber 1.83.01
#
DISCID=160ec115
DTITLE=Ray Price - Classic Country
DYEAR=1900
DGENRE=Country
TTITLE0=Crazy Arms
TTITLE1=I've Got A New Heartache
TTITLE2=My Shoes Keep Walking Back To You
TTITLE3=City Lights
TTITLE4=Heartaches By The Number
TTITLE5=The Same Old Me
TTITLE6=One More Time
TTITLE7=Make The World Go Away
TTITLE8=Burning Memories
TTITLE9=The Other Woman
TTITLE10=For The Good Times
TTITLE11=I Won't Mention It Again
TTITLE12=I'd Rather Be Sorry
TTITLE13=She's Got To Be A Saint
TTITLE14=You're The Best Thing 
TTITLE15=Danny Boy
TTITLE16=Release Me
TTITLE17=Don't Let The Stars Get In Your Eyes
TTITLE18=Talk To Your Heart
TTITLE19=Invitation To The Blues
TTITLE20=Heart Over Mind
EXTD=
EXTT0=
EXTT1=
EXTT2=
EXTT3=
EXTT4=
EXTT5=
EXTT6=
EXTT7=
EXTT8=
EXTT9=
EXTT10=
EXTT11=
EXTT12=
EXTT13=
EXTT14=
EXTT15=
EXTT16=
EXTT17=
EXTT18=
EXTT19=
EXTT20=
PLAYORDER=
